<svg width="27" height="27" viewBox="0 0 27 27" fill="none" xmlns="http://www.w3.org/2000/svg">
<path fill-rule="evenodd" clip-rule="evenodd" d="M0.00385938 13.1604C0.00385938 5.89468 5.89391 0.00461926 13.1597 0.00461926C20.4254 0.00461926 26.3155 5.89467 26.3155 13.1604C26.3155 20.4262 20.4254 26.3162 13.1597 26.3162C5.89392 26.3162 0.00385938 20.4262 0.00385938 13.1604Z" fill="#EA0A0A"/>
<path fill-rule="evenodd" clip-rule="evenodd" d="M20.8423 9.54148C20.1933 8.27775 18.9838 7.39647 17.5824 7.16713C16.181 6.9378 14.7538 7.38695 13.7361 8.37778L13.1552 8.90926L12.5926 8.39683C11.5769 7.38626 10.1354 6.92827 8.72317 7.16781C7.31908 7.38695 6.10751 8.27026 5.46806 9.5408C4.60547 11.2333 4.93812 13.2905 6.29187 14.6236L12.6674 21.1947C12.7953 21.3268 12.9715 21.4009 13.1552 21.4009C13.3388 21.4009 13.515 21.3268 13.6429 21.1947L20.0103 14.6359C21.3695 13.3014 21.7062 11.2394 20.8423 9.54149" fill="#FFF0F0"/>
</svg>
