<svg width="27" height="27" viewBox="0 0 27 27" fill="none" xmlns="http://www.w3.org/2000/svg">
<path fill-rule="evenodd" clip-rule="evenodd" d="M0.161418 13.1604C0.161418 5.89468 6.05371 0.00461926 13.3222 0.00461926C20.5907 0.00461926 26.483 5.89467 26.483 13.1604C26.483 20.4262 20.5907 26.3162 13.3222 26.3162C6.05372 26.3162 0.161418 20.4262 0.161418 13.1604Z" fill="#9AA8C9"/>
<mask id="mask0_6_96" style="mask-type:alpha" maskUnits="userSpaceOnUse" x="4" y="3" width="19" height="18">
<path fill-rule="evenodd" clip-rule="evenodd" d="M4.56759 20.9109V3.24736H22.0761V20.9109H4.56759Z" fill="white"/>
</mask>
<g mask="url(#mask0_6_96)">
<path fill-rule="evenodd" clip-rule="evenodd" d="M22.0063 9.62225C21.8417 9.18033 21.4209 8.88721 20.9497 8.88571H16.3754C16.2161 8.88571 16.0741 8.785 16.0207 8.63468L14.3787 3.98016C14.2141 3.53973 13.7933 3.24737 13.3229 3.24737C12.8525 3.24737 12.4316 3.53973 12.267 3.98016L12.2633 3.99218L10.6251 8.63468C10.5724 8.785 10.4304 8.88571 10.2711 8.88571H5.69533C5.22114 8.88571 4.79731 9.18183 4.63499 9.62826C4.47267 10.0739 4.60794 10.5737 4.97165 10.8781L8.86733 14.1099C8.98682 14.2091 9.03266 14.3707 8.98381 14.518L7.34708 19.4266C7.19227 19.8926 7.3561 20.4051 7.75213 20.6938C8.14891 20.9831 8.68698 20.9824 9.08301 20.6923L13.1004 17.7461C13.2327 17.6491 13.4123 17.6491 13.5446 17.7461L17.5605 20.6915C17.9565 20.9831 18.4946 20.9839 18.8921 20.6953C19.2897 20.4059 19.4535 19.8926 19.2979 19.4266L17.6612 14.515C17.6123 14.3677 17.6582 14.2061 17.7777 14.1069L21.6809 10.8706C22.0401 10.564 22.1701 10.0657 22.0063 9.62225" fill="white"/>
</g>
</svg>
