<svg width="24" height="22" viewBox="0 0 24 22" fill="none" xmlns="http://www.w3.org/2000/svg">
<path d="M0.610691 7.57083H2.55762C3.09498 7.57083 3.53108 8.00737 3.53108 8.54525V20.2382C3.53108 20.7761 3.09497 21.2127 2.55762 21.2127H0.610691" stroke="#49535F" stroke-linecap="round" stroke-linejoin="round"/>
<path d="M3.53117 18.2872C10.6877 21.9202 10.3386 21.4415 16.4664 21.4415C19.0329 21.4415 20.326 19.7693 21.0807 17.319V17.3034L22.9403 11.0632V11.0515C23.1188 10.4626 23.0086 9.82397 22.6429 9.32866C22.2772 8.83335 21.699 8.53986 21.0837 8.53694H16.3055C15.7009 8.53694 15.1295 8.25613 14.7609 7.77739C14.3913 7.29768 14.2655 6.67463 14.4196 6.08961L15.2796 2.82911C15.4854 2.04616 15.1002 1.22909 14.366 0.888798C13.6326 0.54851 12.7599 0.783491 12.2957 1.44652L7.52926 8.1986C7.16358 8.71634 6.56973 9.02445 5.93588 9.02445H3.53119" stroke="#49535F" stroke-linecap="round" stroke-linejoin="round"/>
</svg>
