<svg width="27" height="27" viewBox="0 0 27 27" fill="none" xmlns="http://www.w3.org/2000/svg">
<path fill-rule="evenodd" clip-rule="evenodd" d="M0.328732 13.1604C0.328732 5.89468 6.21878 0.00461926 13.4845 0.00461926C20.7503 0.00461926 26.6403 5.89467 26.6403 13.1604C26.6403 20.4262 20.7503 26.3162 13.4845 26.3162C6.21879 26.3162 0.328732 20.4262 0.328732 13.1604Z" fill="#7CA982"/>
<mask id="mask0_6_102" style="mask-type:alpha" maskUnits="userSpaceOnUse" x="4" y="3" width="19" height="18">
<path fill-rule="evenodd" clip-rule="evenodd" d="M4.58522 20.2759V3.892H22.3843V20.2759H4.58522Z" fill="white"/>
</mask>
<g mask="url(#mask0_6_102)">
<path fill-rule="evenodd" clip-rule="evenodd" d="M22.3843 11.7543C22.3828 10.8138 21.6209 10.0519 20.6802 10.0504H15.5858C15.5283 10.0504 15.4737 10.0239 15.4374 9.97924C15.4018 9.93381 15.3881 9.87474 15.401 9.8187C15.6964 8.6464 15.8789 7.44761 15.9463 6.24048C15.9789 5.6089 15.7744 4.98716 15.373 4.49871C15.0382 4.11703 14.5565 3.89665 14.049 3.89287C13.6575 3.87319 13.275 4.01404 12.9902 4.28288C12.7046 4.55173 12.5418 4.92507 12.538 5.31659C12.5668 8.21551 10.3196 10.629 7.42551 10.8077H5.15329C4.83972 10.8077 4.58523 11.0622 4.58523 11.3757V18.1914C4.58523 18.5049 4.83973 18.7593 5.15329 18.7593C8.58586 18.7593 9.70455 19.2402 10.6915 19.6628C11.561 20.0853 12.5183 20.2943 13.4848 20.2739H18.4079C18.9964 20.2739 19.5433 19.9695 19.8546 19.4697C20.1659 18.9706 20.1969 18.3458 19.9371 17.8172C20.7688 17.3947 21.1066 16.3822 20.6946 15.5454C21.5262 15.1228 21.864 14.1103 21.452 13.2735C22.0238 12.9827 22.3843 12.3958 22.3843 11.7543" fill="white"/>
</g>
</svg>
