<svg width="27" height="27" viewBox="0 0 27 27" fill="none" xmlns="http://www.w3.org/2000/svg">
<path fill-rule="evenodd" clip-rule="evenodd" d="M0.4863 13.1604C0.4863 5.89468 6.37859 0.00461926 13.6471 0.00461926C20.9156 0.00461926 26.8079 5.89467 26.8079 13.1604C26.8079 20.4262 20.9156 26.3162 13.6471 26.3162C6.3786 26.3162 0.4863 20.4262 0.4863 13.1604Z" fill="#FFA841"/>
<mask id="mask0_6_88" style="mask-type:alpha" maskUnits="userSpaceOnUse" x="6" y="3" width="15" height="20">
<path fill-rule="evenodd" clip-rule="evenodd" d="M6.98419 22.7144V3.60674H20.3105V22.7144H6.98419Z" fill="white"/>
</mask>
<g mask="url(#mask0_6_88)">
<path fill-rule="evenodd" clip-rule="evenodd" d="M12.688 3.72322C12.3012 3.51663 11.8248 3.5863 11.5133 3.89458C11.201 4.20206 11.1257 4.67769 11.3267 5.06685C12.507 7.37776 12.5182 10.1123 11.3572 12.4336C11.3219 12.4968 11.2539 12.5361 11.181 12.5353C11.1081 12.5345 11.0417 12.4936 11.0072 12.4296C10.7958 12.0356 10.6445 11.6128 10.5588 11.174C10.5164 10.969 10.3715 10.8009 10.1745 10.7288C9.97829 10.6567 9.75809 10.6928 9.59474 10.8241C7.29825 12.6554 6.40543 15.7358 7.36791 18.5111C8.27834 21.1295 10.8038 22.8351 13.5728 22.7021C16.9591 22.7021 19.3268 20.9846 20.0715 17.9922C21.1757 13.5746 18.466 6.78523 12.688 3.72323M16.481 18.0387C16.2816 19.412 15.0565 20.4001 13.6721 20.304C12.3492 20.3048 11.217 19.3559 10.9856 18.0531C10.9616 17.9202 11.0064 17.7841 11.1041 17.692C11.2026 17.5991 11.3403 17.5615 11.4717 17.5927C12.2868 17.5799 13.0403 17.1547 13.4735 16.4637C13.9723 15.936 14.1141 15.1649 13.8362 14.4939C13.7537 14.3473 13.7721 14.1648 13.881 14.0375C13.9907 13.9101 14.1677 13.8645 14.3254 13.923C15.9013 14.6396 16.7893 16.3356 16.481 18.0387" fill="white"/>
</g>
</svg>
